<svg width="156" height="103" viewBox="0 0 156 103" fill="none" xmlns="http://www.w3.org/2000/svg">
<path d="M121.653 58.9186L126.096 58.8152C174.769 57.9884 158.544 -13.5282 106.462 5.38438C68.0206 19.3363 75.1509 83.515 116.279 94.0564C134.467 98.707 154.721 95.3999 139.634 90.2325C126.716 85.8919 116.279 73.3873 117.003 63.156C117.209 60.8823 119.173 58.9186 121.653 58.9186Z" fill="white"/>
<path d="M26.686 2.80055C-20.126 20.783 -1.11195 99.3272 50.8669 102.738C64.4042 103.668 67.9178 100.464 57.6873 96.6402C47.7669 92.9197 35.263 75.3506 33.9196 63.4657C33.6096 61.0887 35.4695 59.1249 37.8463 59.1249C51.4868 59.1249 57.1706 59.1253 65.1276 48.1704C84.6585 21.0934 58.7207 -9.49778 26.686 2.80055Z" fill="white"/>
</svg>
